<svg xmlns="http://www.w3.org/2000/svg" xmlns:xlink="http://www.w3.org/1999/xlink" width="170" zoomAndPan="magnify" viewBox="0 0 127.5 30.000001" height="40" preserveAspectRatio="xMidYMid meet" version="1.0"><defs><g/><clipPath id="ace1bce906"><path d="M 1.816406 9 L 21 9 L 21 28 L 1.816406 28 Z M 1.816406 9 " clip-rule="nonzero"/></clipPath><clipPath id="fd5098dba3"><path d="M 106 9 L 125.203125 9 L 125.203125 28 L 106 28 Z M 106 9 " clip-rule="nonzero"/></clipPath></defs><g clip-path="url(#ace1bce906)"><g fill="#000000" fill-opacity="1"><g transform="translate(1.814514, 27.765798)"><g><path d="M 18.3125 -12.796875 C 18.3125 -11.628906 17.90625 -10.738281 17.09375 -10.125 C 16.289062 -9.507812 15.375 -9.179688 14.34375 -9.140625 C 13.382812 -9.109375 12.546875 -9.351562 11.828125 -9.875 C 11.109375 -10.40625 10.710938 -11.175781 10.640625 -12.1875 C 11.367188 -12.1875 11.921875 -12.453125 12.296875 -12.984375 C 12.679688 -13.523438 12.875 -14.125 12.875 -14.78125 C 12.894531 -15.664062 12.722656 -16.335938 12.359375 -16.796875 C 11.992188 -17.265625 11.523438 -17.546875 10.953125 -17.640625 C 10.378906 -17.742188 9.78125 -17.691406 9.15625 -17.484375 C 8.53125 -17.273438 7.960938 -16.953125 7.453125 -16.515625 C 6.742188 -15.878906 6.195312 -15.109375 5.8125 -14.203125 C 5.4375 -13.296875 5.234375 -12.335938 5.203125 -11.328125 C 5.179688 -10.328125 5.332031 -9.375 5.65625 -8.46875 C 6.21875 -6.976562 7.15625 -5.859375 8.46875 -5.109375 C 9.789062 -4.367188 11.195312 -4.007812 12.6875 -4.03125 C 13.644531 -4.0625 14.585938 -4.21875 15.515625 -4.5 C 16.441406 -4.78125 17.265625 -5.164062 17.984375 -5.65625 L 18.3125 -5.359375 C 17.84375 -4.203125 17.148438 -3.226562 16.234375 -2.4375 C 15.316406 -1.644531 14.273438 -1.039062 13.109375 -0.625 C 11.953125 -0.207031 10.757812 0 9.53125 0 C 7.769531 0 6.164062 -0.390625 4.71875 -1.171875 C 3.28125 -1.953125 2.128906 -3.035156 1.265625 -4.421875 C 0.398438 -5.804688 -0.03125 -7.378906 -0.03125 -9.140625 C -0.03125 -11.015625 0.441406 -12.632812 1.390625 -14 C 2.347656 -15.375 3.601562 -16.441406 5.15625 -17.203125 C 6.707031 -17.960938 8.375 -18.34375 10.15625 -18.34375 C 10.945312 -18.34375 11.8125 -18.253906 12.75 -18.078125 C 13.6875 -17.910156 14.578125 -17.617188 15.421875 -17.203125 C 16.265625 -16.785156 16.957031 -16.222656 17.5 -15.515625 C 18.039062 -14.804688 18.3125 -13.898438 18.3125 -12.796875 Z M 18.3125 -12.796875 "/></g></g></g></g><g fill="#000000" fill-opacity="1"><g transform="translate(19.19687, 27.765798)"><g><path d="M 0 0 L 0 -0.625 C 0.488281 -0.625 0.914062 -0.773438 1.28125 -1.078125 C 1.644531 -1.390625 1.828125 -2.007812 1.828125 -2.9375 L 1.828125 -22.75 C 1.828125 -23.675781 1.644531 -24.289062 1.28125 -24.59375 C 0.914062 -24.90625 0.488281 -25.0625 0 -25.0625 L 0 -25.6875 C 1.21875 -25.726562 2.5 -25.925781 3.84375 -26.28125 C 5.195312 -26.632812 6.363281 -27.007812 7.34375 -27.40625 L 7.34375 -2.9375 C 7.34375 -2.007812 7.53125 -1.390625 7.90625 -1.078125 C 8.28125 -0.773438 8.710938 -0.625 9.203125 -0.625 L 9.203125 0 Z M 0 0 "/></g></g></g><g fill="#000000" fill-opacity="1"><g transform="translate(27.447654, 27.765798)"><g><path d="M 14.71875 0 C 14.226562 0 13.789062 -0.15625 13.40625 -0.46875 C 13.03125 -0.789062 12.84375 -1.40625 12.84375 -2.3125 L 12.84375 -3.1875 C 11.988281 -2.164062 10.9375 -1.378906 9.6875 -0.828125 C 8.4375 -0.273438 7.128906 0 5.765625 0 C 3.878906 0 2.445312 -0.472656 1.46875 -1.421875 C 0.488281 -2.378906 0 -3.492188 0 -4.765625 C 0 -5.890625 0.265625 -6.84375 0.796875 -7.625 C 1.335938 -8.414062 2.03125 -9.097656 2.875 -9.671875 C 3.71875 -10.242188 4.625 -10.757812 5.59375 -11.21875 C 6.5625 -11.6875 7.488281 -12.160156 8.375 -12.640625 C 9.269531 -13.117188 10.023438 -13.660156 10.640625 -14.265625 C 11.328125 -14.953125 11.632812 -15.5625 11.5625 -16.09375 C 11.488281 -16.632812 11.175781 -17.050781 10.625 -17.34375 C 10.070312 -17.644531 9.414062 -17.769531 8.65625 -17.71875 C 7.40625 -17.664062 6.507812 -17.359375 5.96875 -16.796875 C 5.4375 -16.234375 5.238281 -15.628906 5.375 -14.984375 C 5.507812 -14.335938 5.941406 -13.816406 6.671875 -13.421875 C 6.359375 -12.890625 5.828125 -12.5 5.078125 -12.25 C 4.335938 -12.007812 3.671875 -11.898438 3.078125 -11.921875 C 2.316406 -11.941406 1.613281 -12.148438 0.96875 -12.546875 C 0.320312 -12.941406 0 -13.550781 0 -14.375 C 0 -15.09375 0.226562 -15.691406 0.6875 -16.171875 C 1.15625 -16.660156 1.753906 -17.046875 2.484375 -17.328125 C 3.222656 -17.609375 4.019531 -17.820312 4.875 -17.96875 C 5.726562 -18.125 6.539062 -18.222656 7.3125 -18.265625 C 8.082031 -18.316406 8.738281 -18.34375 9.28125 -18.34375 C 10.132812 -18.34375 11.082031 -18.269531 12.125 -18.125 C 13.164062 -17.976562 14.15625 -17.707031 15.09375 -17.3125 C 16.039062 -16.925781 16.816406 -16.378906 17.421875 -15.671875 C 18.035156 -14.960938 18.34375 -14.039062 18.34375 -12.90625 L 18.34375 -2.9375 C 18.34375 -2.007812 18.53125 -1.390625 18.90625 -1.078125 C 19.289062 -0.773438 19.726562 -0.625 20.21875 -0.625 L 20.21875 0 Z M 12.109375 -15.734375 C 12.109375 -15.054688 11.859375 -14.394531 11.359375 -13.75 C 10.859375 -13.113281 10.363281 -12.566406 9.875 -12.109375 C 9.113281 -11.421875 8.40625 -10.773438 7.75 -10.171875 C 7.101562 -9.578125 6.578125 -8.910156 6.171875 -8.171875 C 5.773438 -7.441406 5.566406 -6.53125 5.546875 -5.4375 C 5.515625 -4.28125 5.804688 -3.347656 6.421875 -2.640625 C 7.035156 -1.929688 7.789062 -1.578125 8.6875 -1.578125 C 9.570312 -1.578125 10.328125 -1.796875 10.953125 -2.234375 C 11.578125 -2.671875 12.046875 -3.25 12.359375 -3.96875 C 12.679688 -4.695312 12.84375 -5.46875 12.84375 -6.28125 L 12.84375 -12.109375 C 12.84375 -13.691406 12.597656 -14.898438 12.109375 -15.734375 Z M 12.109375 -15.734375 "/></g></g></g><g fill="#000000" fill-opacity="1"><g transform="translate(46.773678, 27.765798)"><g><path d="M 5.5 0 L 0 0 L 0 -0.625 C 0.488281 -0.625 0.921875 -0.773438 1.296875 -1.078125 C 1.679688 -1.390625 1.875 -2.007812 1.875 -2.9375 L 1.875 -13.6875 C 1.875 -14.613281 1.679688 -15.226562 1.296875 -15.53125 C 0.921875 -15.84375 0.488281 -16 0 -16 L 0 -16.625 C 1.21875 -16.664062 2.5 -16.863281 3.84375 -17.21875 C 5.195312 -17.570312 6.375 -17.945312 7.375 -18.34375 L 7.375 -14.75 C 7.988281 -15.1875 8.582031 -15.59375 9.15625 -15.96875 C 9.726562 -16.351562 10.296875 -16.703125 10.859375 -17.015625 C 11.640625 -17.429688 12.394531 -17.753906 13.125 -17.984375 C 13.863281 -18.222656 14.597656 -18.34375 15.328125 -18.34375 C 16.773438 -18.34375 17.785156 -18.003906 18.359375 -17.328125 C 18.929688 -16.660156 19.269531 -15.789062 19.375 -14.71875 C 20.007812 -15.15625 20.617188 -15.566406 21.203125 -15.953125 C 21.796875 -16.347656 22.375 -16.703125 22.9375 -17.015625 C 23.71875 -17.429688 24.472656 -17.753906 25.203125 -17.984375 C 25.941406 -18.222656 26.6875 -18.34375 27.4375 -18.34375 C 28.632812 -18.34375 29.523438 -18.113281 30.109375 -17.65625 C 30.703125 -17.207031 31.085938 -16.585938 31.265625 -15.796875 C 31.453125 -15.003906 31.546875 -14.09375 31.546875 -13.0625 L 31.546875 -2.9375 C 31.546875 -2.007812 31.726562 -1.390625 32.09375 -1.078125 C 32.46875 -0.773438 32.898438 -0.625 33.390625 -0.625 L 33.390625 0 L 27.875 0 C 27.394531 0 26.96875 -0.15625 26.59375 -0.46875 C 26.226562 -0.789062 26.046875 -1.40625 26.046875 -2.3125 L 26.046875 -12.109375 C 26.046875 -13.503906 25.726562 -14.460938 25.09375 -14.984375 C 24.457031 -15.515625 23.664062 -15.703125 22.71875 -15.546875 C 21.78125 -15.398438 20.835938 -14.988281 19.890625 -14.3125 C 19.816406 -14.257812 19.738281 -14.203125 19.65625 -14.140625 C 19.582031 -14.078125 19.507812 -14.023438 19.4375 -13.984375 C 19.4375 -13.835938 19.4375 -13.6875 19.4375 -13.53125 C 19.4375 -13.382812 19.4375 -13.226562 19.4375 -13.0625 L 19.4375 -2.9375 C 19.4375 -2.007812 19.625 -1.390625 20 -1.078125 C 20.382812 -0.773438 20.820312 -0.625 21.3125 -0.625 L 21.3125 0 L 12.109375 0 L 12.109375 -0.625 C 12.597656 -0.625 13.023438 -0.773438 13.390625 -1.078125 C 13.753906 -1.390625 13.9375 -2.007812 13.9375 -2.9375 L 13.9375 -12.109375 C 13.9375 -13.503906 13.617188 -14.460938 12.984375 -14.984375 C 12.347656 -15.515625 11.554688 -15.703125 10.609375 -15.546875 C 9.671875 -15.398438 8.726562 -14.988281 7.78125 -14.3125 C 7.707031 -14.257812 7.632812 -14.207031 7.5625 -14.15625 C 7.488281 -14.113281 7.425781 -14.066406 7.375 -14.015625 L 7.375 -2.3125 C 7.375 -1.40625 7.179688 -0.789062 6.796875 -0.46875 C 6.421875 -0.15625 5.988281 0 5.5 0 Z M 5.5 0 "/></g></g></g><g fill="#000000" fill-opacity="1"><g transform="translate(79.191949, 27.765798)"><g><path d="M 14.71875 0 C 14.226562 0 13.789062 -0.15625 13.40625 -0.46875 C 13.03125 -0.789062 12.84375 -1.40625 12.84375 -2.3125 L 12.84375 -3.1875 C 11.988281 -2.164062 10.9375 -1.378906 9.6875 -0.828125 C 8.4375 -0.273438 7.128906 0 5.765625 0 C 3.878906 0 2.445312 -0.472656 1.46875 -1.421875 C 0.488281 -2.378906 0 -3.492188 0 -4.765625 C 0 -5.890625 0.265625 -6.84375 0.796875 -7.625 C 1.335938 -8.414062 2.03125 -9.097656 2.875 -9.671875 C 3.71875 -10.242188 4.625 -10.757812 5.59375 -11.21875 C 6.5625 -11.6875 7.488281 -12.160156 8.375 -12.640625 C 9.269531 -13.117188 10.023438 -13.660156 10.640625 -14.265625 C 11.328125 -14.953125 11.632812 -15.5625 11.5625 -16.09375 C 11.488281 -16.632812 11.175781 -17.050781 10.625 -17.34375 C 10.070312 -17.644531 9.414062 -17.769531 8.65625 -17.71875 C 7.40625 -17.664062 6.507812 -17.359375 5.96875 -16.796875 C 5.4375 -16.234375 5.238281 -15.628906 5.375 -14.984375 C 5.507812 -14.335938 5.941406 -13.816406 6.671875 -13.421875 C 6.359375 -12.890625 5.828125 -12.5 5.078125 -12.25 C 4.335938 -12.007812 3.671875 -11.898438 3.078125 -11.921875 C 2.316406 -11.941406 1.613281 -12.148438 0.96875 -12.546875 C 0.320312 -12.941406 0 -13.550781 0 -14.375 C 0 -15.09375 0.226562 -15.691406 0.6875 -16.171875 C 1.15625 -16.660156 1.753906 -17.046875 2.484375 -17.328125 C 3.222656 -17.609375 4.019531 -17.820312 4.875 -17.96875 C 5.726562 -18.125 6.539062 -18.222656 7.3125 -18.265625 C 8.082031 -18.316406 8.738281 -18.34375 9.28125 -18.34375 C 10.132812 -18.34375 11.082031 -18.269531 12.125 -18.125 C 13.164062 -17.976562 14.15625 -17.707031 15.09375 -17.3125 C 16.039062 -16.925781 16.816406 -16.378906 17.421875 -15.671875 C 18.035156 -14.960938 18.34375 -14.039062 18.34375 -12.90625 L 18.34375 -2.9375 C 18.34375 -2.007812 18.53125 -1.390625 18.90625 -1.078125 C 19.289062 -0.773438 19.726562 -0.625 20.21875 -0.625 L 20.21875 0 Z M 12.109375 -15.734375 C 12.109375 -15.054688 11.859375 -14.394531 11.359375 -13.75 C 10.859375 -13.113281 10.363281 -12.566406 9.875 -12.109375 C 9.113281 -11.421875 8.40625 -10.773438 7.75 -10.171875 C 7.101562 -9.578125 6.578125 -8.910156 6.171875 -8.171875 C 5.773438 -7.441406 5.566406 -6.53125 5.546875 -5.4375 C 5.515625 -4.28125 5.804688 -3.347656 6.421875 -2.640625 C 7.035156 -1.929688 7.789062 -1.578125 8.6875 -1.578125 C 9.570312 -1.578125 10.328125 -1.796875 10.953125 -2.234375 C 11.578125 -2.671875 12.046875 -3.25 12.359375 -3.96875 C 12.679688 -4.695312 12.84375 -5.46875 12.84375 -6.28125 L 12.84375 -12.109375 C 12.84375 -13.691406 12.597656 -14.898438 12.109375 -15.734375 Z M 12.109375 -15.734375 "/></g></g></g><g fill="#000000" fill-opacity="1"><g transform="translate(98.517973, 27.765798)"><g><path d="M 0 0 L 0 -0.625 C 0.488281 -0.625 0.914062 -0.773438 1.28125 -1.078125 C 1.644531 -1.390625 1.828125 -2.007812 1.828125 -2.9375 L 1.828125 -22.75 C 1.828125 -23.675781 1.644531 -24.289062 1.28125 -24.59375 C 0.914062 -24.90625 0.488281 -25.0625 0 -25.0625 L 0 -25.6875 C 1.21875 -25.726562 2.5 -25.925781 3.84375 -26.28125 C 5.195312 -26.632812 6.363281 -27.007812 7.34375 -27.40625 L 7.34375 -2.9375 C 7.34375 -2.007812 7.53125 -1.390625 7.90625 -1.078125 C 8.28125 -0.773438 8.710938 -0.625 9.203125 -0.625 L 9.203125 0 Z M 0 0 "/></g></g></g><g clip-path="url(#fd5098dba3)"><g fill="#000000" fill-opacity="1"><g transform="translate(106.768758, 27.765798)"><g><path d="M 9.171875 -18.34375 C 10.859375 -18.34375 12.398438 -17.929688 13.796875 -17.109375 C 15.191406 -16.296875 16.296875 -15.191406 17.109375 -13.796875 C 17.929688 -12.398438 18.34375 -10.859375 18.34375 -9.171875 C 18.34375 -7.484375 17.929688 -5.945312 17.109375 -4.5625 C 16.296875 -3.1875 15.191406 -2.082031 13.796875 -1.25 C 12.398438 -0.414062 10.859375 0 9.171875 0 C 7.484375 0 5.945312 -0.414062 4.5625 -1.25 C 3.1875 -2.082031 2.082031 -3.1875 1.25 -4.5625 C 0.414062 -5.945312 0 -7.484375 0 -9.171875 C 0 -10.859375 0.414062 -12.398438 1.25 -13.796875 C 2.082031 -15.191406 3.1875 -16.296875 4.5625 -17.109375 C 5.945312 -17.929688 7.484375 -18.34375 9.171875 -18.34375 Z M 9.171875 -17.71875 C 8.515625 -17.71875 7.90625 -17.332031 7.34375 -16.5625 C 6.78125 -15.789062 6.332031 -14.765625 6 -13.484375 C 5.664062 -12.203125 5.5 -10.765625 5.5 -9.171875 C 5.5 -7.609375 5.664062 -6.175781 6 -4.875 C 6.332031 -3.582031 6.78125 -2.550781 7.34375 -1.78125 C 7.90625 -1.007812 8.515625 -0.625 9.171875 -0.625 C 9.859375 -0.625 10.472656 -1.007812 11.015625 -1.78125 C 11.566406 -2.550781 12.007812 -3.582031 12.34375 -4.875 C 12.675781 -6.175781 12.84375 -7.609375 12.84375 -9.171875 C 12.84375 -10.765625 12.675781 -12.203125 12.34375 -13.484375 C 12.007812 -14.765625 11.566406 -15.789062 11.015625 -16.5625 C 10.472656 -17.332031 9.859375 -17.71875 9.171875 -17.71875 Z M 9.171875 -17.71875 "/></g></g></g></g></svg>